<svg id="Layer_1" data-name="Layer 1" xmlns="http://www.w3.org/2000/svg" viewBox="0 0 511.48 142.34"><defs><style>.cls-1,.cls-10,.cls-11,.cls-12,.cls-13,.cls-14,.cls-15,.cls-16,.cls-19,.cls-2,.cls-21,.cls-22,.cls-3,.cls-4,.cls-5,.cls-6,.cls-7,.cls-8,.cls-9{fill:none;}.cls-1,.cls-19,.cls-2,.cls-20,.cls-4{stroke:#2484c6;}.cls-1,.cls-10,.cls-11,.cls-12,.cls-13,.cls-14,.cls-15,.cls-16,.cls-19,.cls-2,.cls-20,.cls-21,.cls-22,.cls-3,.cls-4,.cls-5,.cls-6,.cls-7,.cls-8,.cls-9{stroke-miterlimit:10;}.cls-2{stroke-width:0.5px;}.cls-3{stroke:#b22526;stroke-width:0.25px;}.cls-4{stroke-width:0.75px;}.cls-10,.cls-11,.cls-12,.cls-13,.cls-14,.cls-15,.cls-16,.cls-5,.cls-6,.cls-7,.cls-8,.cls-9{stroke:#414042;}.cls-5{stroke-dasharray:1.01 4.03;}.cls-6{stroke-dasharray:0.99 3.96;}.cls-7{stroke-dasharray:1.01 4.04;}.cls-8{stroke-dasharray:1.01 4.04;}.cls-9{stroke-dasharray:1.01 4.04;}.cls-10{stroke-dasharray:0.99 3.96;}.cls-11{stroke-dasharray:1 4.01;}.cls-12{stroke-dasharray:0.97 3.9;}.cls-13{stroke-dasharray:1 4.01;}.cls-14{stroke-dasharray:0.99 3.98;}.cls-15{stroke-dasharray:1 3.98;}.cls-16{stroke-dasharray:1 3.99;}.cls-17{fill:#414042;}.cls-18,.cls-20{fill:#2484c6;}.cls-19{stroke-width:4px;}.cls-21{stroke:#fff;}.cls-22{stroke:#000;stroke-linecap:round;stroke-width:2px;stroke-dasharray:1 10;opacity:0.42;}</style></defs><title>skepta</title><path class="cls-1" d="M437.5,475.25h-50v-7.71h0a7.67,7.67,0,0,0-6.53,3.62,7.56,7.56,0,0,0-1.17,4.09H337.45a50.07,50.07,0,0,1,50-50h0a50.07,50.07,0,0,1,50,50Z" transform="translate(-35.64 -333.82)"/><path class="cls-2" d="M431.16,475.25H387.48v-7.71h0a7.67,7.67,0,0,0-6.53,3.62,7.56,7.56,0,0,0-1.17,4.09h-36a43.75,43.75,0,0,1,43.68-43.69h0a43.75,43.75,0,0,1,43.68,43.69Z" transform="translate(-35.64 -333.82)"/><path class="cls-1" d="M425.58,475.25h-38.1v-7.71h0a7.67,7.67,0,0,0-6.53,3.62,7.56,7.56,0,0,0-1.17,4.09h-30.4A38.11,38.11,0,0,1,382,437.55a37.42,37.42,0,0,1,5.45-.4h0a38.1,38.1,0,0,1,37.7,32.65A37.32,37.32,0,0,1,425.58,475.25Z" transform="translate(-35.64 -333.82)"/><path class="cls-2" d="M421.34,475.25H387.48v-7.71h0a7.67,7.67,0,0,0-6.53,3.62,7.56,7.56,0,0,0-1.17,4.09H353.61a34.49,34.49,0,0,1,.25-4,33.87,33.87,0,0,1,33.61-29.82h0a34.3,34.3,0,0,1,4,.24A33.88,33.88,0,0,1,421.34,475.25Z" transform="translate(-35.64 -333.82)"/><path class="cls-1" d="M417.12,475.25H387.48v-7.71h0a7.67,7.67,0,0,0-6.53,3.62,7.56,7.56,0,0,0-1.17,4.09H357.83a29.65,29.65,0,0,1,23-28.88,29.29,29.29,0,0,1,6.66-.77h0a29.7,29.7,0,0,1,29.64,29.65Z" transform="translate(-35.64 -333.82)"/><path class="cls-2" d="M411.5,475.25h-24v-7.71h0a7.67,7.67,0,0,0-6.53,3.62,7.56,7.56,0,0,0-1.17,4.09H363.45a23.63,23.63,0,0,1,.41-4.4,24,24,0,0,1,23.61-19.63h0a23.53,23.53,0,0,1,4.39.41A24,24,0,0,1,411.5,475.25Z" transform="translate(-35.64 -333.82)"/><path class="cls-1" d="M406.85,475.25H387.48v-7.71h0a7.67,7.67,0,0,0-6.53,3.62,7.56,7.56,0,0,0-1.17,4.09H368.09a19.39,19.39,0,0,1,19.38-19.38h0a19.39,19.39,0,0,1,19.37,19.38Z" transform="translate(-35.64 -333.82)"/><path class="cls-2" d="M402.89,475.25H387.48v-7.71h0a7.67,7.67,0,0,0-6.53,3.62,7.56,7.56,0,0,0-1.17,4.09h-7.71a15.42,15.42,0,0,1,15.41-15.42h0a15.44,15.44,0,0,1,15.41,15.42Z" transform="translate(-35.64 -333.82)"/><path class="cls-2" d="M398.38,475.25h-10.9v-7.71h0a7.67,7.67,0,0,0-6.53,3.62,7.56,7.56,0,0,0-1.17,4.09h-3.2a10.9,10.9,0,0,1,10.9-10.9h0a10.92,10.92,0,0,1,10.9,10.9Z" transform="translate(-35.64 -333.82)"/><path class="cls-3" d="M395.18,475.25h-7.7v-7.71a7.7,7.7,0,0,1,7.7,7.71Z" transform="translate(-35.64 -333.82)"/><path class="cls-2" d="M443.06,475.25H387.48v-7.71h0a7.67,7.67,0,0,0-6.53,3.62,7.56,7.56,0,0,0-1.17,4.09H331.89a55.62,55.62,0,0,1,55.58-55.59h0a54.94,54.94,0,0,1,6.62.4A55.59,55.59,0,0,1,443.06,475.25Z" transform="translate(-35.64 -333.82)"/><path class="cls-1" d="M448.42,475.25H387.48v-7.71h0a7.67,7.67,0,0,0-6.53,3.62,7.56,7.56,0,0,0-1.17,4.09H326.52a61,61,0,0,1,52.23-60.32,60,60,0,0,1,8.72-.63h0a61,61,0,0,1,60.31,52.23A60,60,0,0,1,448.42,475.25Z" transform="translate(-35.64 -333.82)"/><path class="cls-4" d="M251.94,411.46l55.51-12.81a57.08,57.08,0,1,1-.89-3.36Z" transform="translate(-35.64 -333.82)"/><circle class="cls-5" cx="216.3" cy="77.64" r="49.74"/><circle class="cls-6" cx="216.3" cy="77.64" r="43.39"/><circle class="cls-7" cx="251.94" cy="411.46" r="38.56" transform="translate(-252.8 -35.16) rotate(-45)"/><circle class="cls-8" cx="251.94" cy="411.46" r="33.75" transform="translate(-265.85 95.1) rotate(-60.59)"/><circle class="cls-9" cx="251.94" cy="411.46" r="27.36" transform="translate(-207.3 -153.3) rotate(-29.92)"/><circle class="cls-10" cx="251.94" cy="411.46" r="22.07" transform="translate(-96.85 -289.39) rotate(-8.99)"/><circle class="cls-11" cx="251.94" cy="411.46" r="17.56" transform="translate(-124.29 -264.08) rotate(-13.43)"/><circle class="cls-12" cx="251.94" cy="411.46" r="12.42" transform="translate(-241.9 -73.46) rotate(-40.27)"/><circle class="cls-13" cx="251.94" cy="411.46" r="8.78" transform="translate(-121.72 -266.62) rotate(-13)"/><circle class="cls-14" cx="216.3" cy="77.64" r="63.3"/><path class="cls-15" d="M222.85,474.48c2.45,0,4.84-.09,7-.32,10.05-1.07,20-2.86,30.13-3.19,5.48-.19,11-.06,16.44-.19,4.1-.1,8.21-.53,12.31-.5a69.4,69.4,0,1,0-105.87-66,68.51,68.51,0,0,0,.34,17.14A69.32,69.32,0,0,0,222.85,474.48Z" transform="translate(-35.64 -333.82)"/><path class="cls-16" d="M266.05,335.64a77.13,77.13,0,0,0-57.49,139.61l.07.05q23,0,46.06-.18c13.71-.09,27.69-1,41.43-.46a77.1,77.1,0,0,0-30.07-139Z" transform="translate(-35.64 -333.82)"/><circle class="cls-17" cx="315.39" cy="57.9" r="23.39"/><path class="cls-17" d="M290.42,475.8H150.73A70.54,70.54,0,0,1,201,408.29a66.41,66.41,0,0,1,7.59-1.77q3-.52,6-.78t5.94-.25h.22a69.22,69.22,0,0,1,7,.37c2,.2,4,.51,6,.89,1.53.29,3,.64,4.53,1s3,.84,4.46,1.34c2,.69,4,1.45,5.94,2.32q2.55,1.14,5,2.47t4.62,2.77h0a70,70,0,0,1,15.57,13.82c1.16,1.37,2.27,2.81,3.32,4.27s2.11,3.09,3.08,4.7c1.1,1.83,2.11,3.7,3,5.63q1,2.11,1.91,4.31c.59,1.43,1.13,2.9,1.61,4.39h0c.64,1.94,1.2,3.9,1.67,5.91a68.58,68.58,0,0,1,1.26,6.92c.28,2.06.47,4.14.55,6.26.05.82.07,1.65.07,2.48C290.42,475.53,290.42,475.66,290.42,475.8Z" transform="translate(-35.64 -333.82)"/><path class="cls-18" d="M35.64,391.82a107.65,107.65,0,0,0,83.72,83.73H35.64Z" transform="translate(-35.64 -333.82)"/><rect class="cls-17" x="109.49" y="340.6" width="34.93" height="132.73" transform="translate(87.83 -353.15) rotate(16.86)"/><rect class="cls-19" x="109.49" y="345.5" width="34.93" height="132.73" transform="translate(443.09 -170.97) rotate(71.84)"/><path class="cls-2" d="M320.17,475.25c0-37.17,30.32-67.31,67.73-67.31s67.74,30.14,67.74,67.31" transform="translate(-35.64 -333.82)"/><line class="cls-20" x1="284.53" y1="141.43" x2="344.13" y2="141.43"/><path class="cls-18" d="M455.64,475.66H387.48l.28-67.8A67.93,67.93,0,0,1,455.64,475.66Z" transform="translate(-35.64 -333.82)"/><line class="cls-21" x1="352.16" y1="142.34" x2="352.16" y2="141.84"/><path class="cls-22" d="M419.44,405.88q.26,34.42.07,68.85" transform="translate(-35.64 -333.82)"/><path class="cls-22" d="M546.12,405.88q-.58,34.37-.23,68.73" transform="translate(-35.64 -333.82)"/><path class="cls-22" d="M491.83,405.88q-.22,33.76-.1,67.53" transform="translate(-35.64 -333.82)"/><path class="cls-22" d="M500.88,405.88q-.27,33.74-.13,67.45" transform="translate(-35.64 -333.82)"/><path class="cls-22" d="M509.93,405.88q-.33,33.76-.16,67.53" transform="translate(-35.64 -333.82)"/><path class="cls-22" d="M519,405.88q-.37,34-.17,67.92" transform="translate(-35.64 -333.82)"/><path class="cls-22" d="M528,405.88q-.43,33.87-.2,67.73" transform="translate(-35.64 -333.82)"/><path class="cls-22" d="M537.07,405.88q-.5,34.13-.22,68.24" transform="translate(-35.64 -333.82)"/><path class="cls-22" d="M473.73,405.88q-.11,33.72-.05,67.43" transform="translate(-35.64 -333.82)"/><path class="cls-22" d="M482.78,405.88q-.16,33.63-.08,67.24" transform="translate(-35.64 -333.82)"/><path class="cls-22" d="M455.64,405.88V473.3" transform="translate(-35.64 -333.82)"/><path class="cls-22" d="M464.68,405.88q0,33.69,0,67.36" transform="translate(-35.64 -333.82)"/><path class="cls-22" d="M437.54,405.88q.12,34.32,0,68.63" transform="translate(-35.64 -333.82)"/><path class="cls-22" d="M446.59,405.88q.06,33.87,0,67.73" transform="translate(-35.64 -333.82)"/><path class="cls-22" d="M428.49,405.88q.19,34.53.06,69.06" transform="translate(-35.64 -333.82)"/></svg>