<svg id="Layer_1" data-name="Layer 1" xmlns="http://www.w3.org/2000/svg" viewBox="0 0 142.34 511.48"><defs><style>.cls-1,.cls-10,.cls-11,.cls-12,.cls-13,.cls-14,.cls-15,.cls-16,.cls-19,.cls-2,.cls-21,.cls-22,.cls-3,.cls-4,.cls-5,.cls-6,.cls-7,.cls-8,.cls-9{fill:none;}.cls-1,.cls-19,.cls-2,.cls-20,.cls-4{stroke:#2484c6;}.cls-1,.cls-10,.cls-11,.cls-12,.cls-13,.cls-14,.cls-15,.cls-16,.cls-19,.cls-2,.cls-20,.cls-21,.cls-22,.cls-3,.cls-4,.cls-5,.cls-6,.cls-7,.cls-8,.cls-9{stroke-miterlimit:10;}.cls-2{stroke-width:0.5px;}.cls-3{stroke:#b22526;stroke-width:0.25px;}.cls-4{stroke-width:0.75px;}.cls-10,.cls-11,.cls-12,.cls-13,.cls-14,.cls-15,.cls-16,.cls-5,.cls-6,.cls-7,.cls-8,.cls-9{stroke:#414042;}.cls-5{stroke-dasharray:1.01 4.03;}.cls-6{stroke-dasharray:0.99 3.96;}.cls-7{stroke-dasharray:1.01 4.04;}.cls-8{stroke-dasharray:1.01 4.04;}.cls-9{stroke-dasharray:1.01 4.04;}.cls-10{stroke-dasharray:0.99 3.96;}.cls-11{stroke-dasharray:1 4.01;}.cls-12{stroke-dasharray:0.97 3.9;}.cls-13{stroke-dasharray:1 4.01;}.cls-14{stroke-dasharray:0.99 3.98;}.cls-15{stroke-dasharray:1 3.98;}.cls-16{stroke-dasharray:1 3.99;}.cls-17{fill:#414042;}.cls-18,.cls-20{fill:#2484c6;}.cls-19{stroke-width:4px;}.cls-21{stroke:#fff;}.cls-22{stroke:#000;stroke-linecap:round;stroke-width:2px;stroke-dasharray:1 10;opacity:0.42;}</style></defs><title>design</title><path class="cls-1" d="M594.37,206.91v50h-7.71a7.67,7.67,0,0,0,3.62,6.53,7.56,7.56,0,0,0,4.09,1.17V307a50.07,50.07,0,0,1-50-50h0a50.07,50.07,0,0,1,50-50Z" transform="translate(-452.94 -97.29)"/><path class="cls-2" d="M594.37,213.25v43.68h-7.71a7.67,7.67,0,0,0,3.62,6.53,7.56,7.56,0,0,0,4.09,1.17v36a43.75,43.75,0,0,1-43.69-43.68h0a43.75,43.75,0,0,1,43.69-43.68Z" transform="translate(-452.94 -97.29)"/><path class="cls-1" d="M594.37,218.83v38.1h-7.71a7.67,7.67,0,0,0,3.62,6.53,7.56,7.56,0,0,0,4.09,1.17V295a38.11,38.11,0,0,1-37.7-32.65,37.42,37.42,0,0,1-.4-5.45h0a38.1,38.1,0,0,1,32.65-37.7A37.32,37.32,0,0,1,594.37,218.83Z" transform="translate(-452.94 -97.29)"/><path class="cls-2" d="M594.37,223.07v33.86h-7.71a7.67,7.67,0,0,0,3.62,6.53,7.56,7.56,0,0,0,4.09,1.17V290.8a34.49,34.49,0,0,1-4-.25,33.87,33.87,0,0,1-29.82-33.61h0a34.3,34.3,0,0,1,.24-4A33.88,33.88,0,0,1,594.37,223.07Z" transform="translate(-452.94 -97.29)"/><path class="cls-1" d="M594.37,227.29v29.64h-7.71a7.67,7.67,0,0,0,3.62,6.53,7.56,7.56,0,0,0,4.09,1.17v21.94a29.65,29.65,0,0,1-28.88-23,29.29,29.29,0,0,1-.77-6.66h0a29.7,29.7,0,0,1,29.65-29.64Z" transform="translate(-452.94 -97.29)"/><path class="cls-2" d="M594.37,232.91v24h-7.71a7.67,7.67,0,0,0,3.62,6.53,7.56,7.56,0,0,0,4.09,1.17V281a23.63,23.63,0,0,1-4.4-.41,24,24,0,0,1-19.63-23.61h0a23.53,23.53,0,0,1,.41-4.39A24,24,0,0,1,594.37,232.91Z" transform="translate(-452.94 -97.29)"/><path class="cls-1" d="M594.37,237.56v19.37h-7.71a7.67,7.67,0,0,0,3.62,6.53,7.56,7.56,0,0,0,4.09,1.17v11.68A19.39,19.39,0,0,1,575,256.94h0a19.39,19.39,0,0,1,19.38-19.37Z" transform="translate(-452.94 -97.29)"/><path class="cls-2" d="M594.37,241.52v15.41h-7.71a7.67,7.67,0,0,0,3.62,6.53,7.56,7.56,0,0,0,4.09,1.17v7.71A15.42,15.42,0,0,1,579,256.94h0a15.44,15.44,0,0,1,15.42-15.41Z" transform="translate(-452.94 -97.29)"/><path class="cls-2" d="M594.37,246v10.9h-7.71a7.67,7.67,0,0,0,3.62,6.53,7.56,7.56,0,0,0,4.09,1.17v3.2a10.9,10.9,0,0,1-10.9-10.9h0a10.92,10.92,0,0,1,10.9-10.9Z" transform="translate(-452.94 -97.29)"/><path class="cls-3" d="M594.37,249.23v7.7h-7.71a7.7,7.7,0,0,1,7.71-7.7Z" transform="translate(-452.94 -97.29)"/><path class="cls-2" d="M594.37,201.35v55.58h-7.71a7.67,7.67,0,0,0,3.62,6.53,7.56,7.56,0,0,0,4.09,1.17v47.88a55.62,55.62,0,0,1-55.59-55.58h0a54.94,54.94,0,0,1,.4-6.62A55.59,55.59,0,0,1,594.37,201.35Z" transform="translate(-452.94 -97.29)"/><path class="cls-1" d="M594.37,196v60.94h-7.71a7.67,7.67,0,0,0,3.62,6.53,7.56,7.56,0,0,0,4.09,1.17v53.25a61,61,0,0,1-60.32-52.23,60,60,0,0,1-.63-8.72h0a61,61,0,0,1,52.23-60.31A60,60,0,0,1,594.37,196Z" transform="translate(-452.94 -97.29)"/><path class="cls-4" d="M530.58,392.47,517.77,337a57,57,0,1,1-3.37.89Z" transform="translate(-452.94 -97.29)"/><circle class="cls-5" cx="530.58" cy="392.47" r="49.74" transform="translate(-575.05 392.84) rotate(-45)"/><circle class="cls-6" cx="530.58" cy="392.47" r="43.39" transform="translate(-575.05 392.84) rotate(-45)"/><circle class="cls-7" cx="530.58" cy="392.47" r="38.56" transform="translate(-356.08 792.6) rotate(-85.4)"/><circle class="cls-8" cx="530.58" cy="392.47" r="33.75" transform="translate(-393.4 757.42) rotate(-80.95)"/><circle class="cls-9" cx="530.58" cy="392.47" r="27.36" transform="translate(-581.9 271.76) rotate(-34.46)"/><circle class="cls-10" cx="530.58" cy="392.47" r="22.07" transform="translate(-486.21 -47.77) rotate(-5.18)"/><circle class="cls-11" cx="530.58" cy="392.47" r="17.56" transform="translate(-492.09 -37.91) rotate(-6.18)"/><circle class="cls-12" cx="530.58" cy="392.47" r="12.42" transform="translate(-331.57 812.96) rotate(-88.17)"/><circle class="cls-13" cx="530.58" cy="392.47" r="8.78" transform="translate(-527.6 32.08) rotate(-13)"/><circle class="cls-14" cx="530.58" cy="392.47" r="63.3" transform="translate(-575.05 392.84) rotate(-45)"/><path class="cls-15" d="M593.6,421.57c-.05-2.46-.09-4.85-.33-7.05-1.06-10-2.85-20-3.19-30.13-.18-5.48-.05-11-.18-16.44-.1-4.1-.53-8.21-.5-12.31a69.41,69.41,0,1,0-66,105.87,68.43,68.43,0,0,0,17.13-.34A69.33,69.33,0,0,0,593.6,421.57Z" transform="translate(-452.94 -97.29)"/><path class="cls-16" d="M454.75,378.36a77.14,77.14,0,0,0,139.62,57.49l0-.07q0-23-.18-46c-.09-13.72-1-27.7-.46-41.44a77.1,77.1,0,0,0-139,30.07Z" transform="translate(-452.94 -97.29)"/><circle class="cls-17" cx="57.9" cy="196.09" r="23.39"/><path class="cls-17" d="M594.92,354V493.68a70,70,0,0,1-69.29-57.9q-.51-3-.77-6c-.18-2-.26-3.94-.26-5.94v-.22a66.37,66.37,0,0,1,.38-6.95q.3-3.06.89-6c.29-1.53.63-3,1-4.53s.84-3,1.33-4.46c.69-2,1.46-4,2.33-5.94q1.14-2.55,2.47-5t2.77-4.62h0a70,70,0,0,1,13.81-15.57q2.07-1.74,4.28-3.32c1.52-1.09,3.08-2.11,4.69-3.08,1.83-1.1,3.7-2.11,5.63-3q2.13-1,4.31-1.91c1.44-.59,2.9-1.13,4.39-1.61h0c1.94-.64,3.9-1.2,5.92-1.67a68.39,68.39,0,0,1,6.91-1.26c2.07-.28,4.15-.47,6.26-.55.82-.05,1.65-.07,2.48-.07Z" transform="translate(-452.94 -97.29)"/><path class="cls-18" d="M510.94,608.77a107.63,107.63,0,0,0,83.72-83.72v83.72Z" transform="translate(-452.94 -97.29)"/><rect class="cls-17" x="508.62" y="451.08" width="34.93" height="132.73" transform="translate(-574.63 773.58) rotate(-73.14)"/><rect class="cls-19" x="513.51" y="451.08" width="34.93" height="132.73" transform="translate(-587.78 94.01) rotate(-18.16)"/><path class="cls-2" d="M594.37,324.24c-37.17,0-67.31-30.32-67.31-67.73s30.14-67.74,67.31-67.74" transform="translate(-452.94 -97.29)"/><line class="cls-20" x1="141.43" y1="226.95" x2="141.43" y2="167.35"/><path class="cls-18" d="M594.78,188.77v68.16l-67.8-.28A67.93,67.93,0,0,1,594.78,188.77Z" transform="translate(-452.94 -97.29)"/><line class="cls-21" x1="142.34" y1="159.32" x2="141.84" y2="159.32"/><path class="cls-22" d="M525,225q34.43-.25,68.85-.07" transform="translate(-452.94 -97.29)"/><path class="cls-22" d="M525,98.29q34.37.58,68.73.23" transform="translate(-452.94 -97.29)"/><path class="cls-22" d="M525,152.58q33.76.22,67.52.11" transform="translate(-452.94 -97.29)"/><path class="cls-22" d="M525,143.53q33.72.27,67.45.13" transform="translate(-452.94 -97.29)"/><path class="cls-22" d="M525,134.48q33.76.33,67.52.16" transform="translate(-452.94 -97.29)"/><path class="cls-22" d="M525,125.44q34,.38,67.92.18" transform="translate(-452.94 -97.29)"/><path class="cls-22" d="M525,116.39q33.86.44,67.73.2" transform="translate(-452.94 -97.29)"/><path class="cls-22" d="M525,107.34q34.11.5,68.24.22" transform="translate(-452.94 -97.29)"/><path class="cls-22" d="M525,170.68q33.72.1,67.43,0" transform="translate(-452.94 -97.29)"/><path class="cls-22" d="M525,161.63q33.62.17,67.24.08" transform="translate(-452.94 -97.29)"/><path class="cls-22" d="M525,188.77h67.42" transform="translate(-452.94 -97.29)"/><path class="cls-22" d="M525,179.73q33.68,0,67.36,0" transform="translate(-452.94 -97.29)"/><path class="cls-22" d="M525,206.87q34.31-.12,68.62,0" transform="translate(-452.94 -97.29)"/><path class="cls-22" d="M525,197.82q33.86-.06,67.73,0" transform="translate(-452.94 -97.29)"/><path class="cls-22" d="M525,215.92q34.53-.18,69.06,0" transform="translate(-452.94 -97.29)"/></svg>