<svg id="Layer_1" data-name="Layer 1" xmlns="http://www.w3.org/2000/svg" viewBox="0 0 226.9 842.89"><defs><style>.cls-1,.cls-10,.cls-11,.cls-12,.cls-13,.cls-14,.cls-15,.cls-16,.cls-18,.cls-19,.cls-3,.cls-4,.cls-5,.cls-6,.cls-7,.cls-8,.cls-9{fill:none;stroke-miterlimit:10;}.cls-1,.cls-18,.cls-3{stroke:#b22526;}.cls-1{stroke-width:0.25px;}.cls-2{fill:#b22425;}.cls-3{stroke-width:0.75px;}.cls-10,.cls-11,.cls-12,.cls-13,.cls-14,.cls-15,.cls-16,.cls-4,.cls-5,.cls-6,.cls-7,.cls-8,.cls-9{stroke:#414042;}.cls-4{stroke-dasharray:1 4;}.cls-5{stroke-dasharray:1 4.01;}.cls-6{stroke-dasharray:1 3.98;}.cls-7{stroke-dasharray:1 4.01;}.cls-8{stroke-dasharray:1.01 4.03;}.cls-9{stroke-dasharray:1 3.99;}.cls-10{stroke-dasharray:1 3.99;}.cls-11{stroke-dasharray:0.99 3.95;}.cls-12{stroke-dasharray:1.03 4.11;}.cls-13{stroke-dasharray:1 4;}.cls-15{stroke-dasharray:1 3.99;}.cls-16{stroke-dasharray:1 3.99;}.cls-17{fill:#414042;}.cls-18{stroke-width:4px;}.cls-19{stroke:#231f20;stroke-linecap:round;stroke-width:2px;stroke-dasharray:1 10;opacity:0.42;}</style></defs><title>design</title><path class="cls-1" d="M594.6,179.14v82.49H581.88v0a12.68,12.68,0,0,0,6,10.77,12.54,12.54,0,0,0,6.75,1.93v69.79a82.59,82.59,0,0,1-82.51-82.49v0a82.6,82.6,0,0,1,82.51-82.49Z" transform="translate(-368.88 1)"/><path class="cls-1" d="M594.6,189.59v72H581.88v0a12.68,12.68,0,0,0,6,10.77,12.54,12.54,0,0,0,6.75,1.93v59.34a72.16,72.16,0,0,1-72.05-72v0a72.13,72.13,0,0,1,72.05-72Z" transform="translate(-368.88 1)"/><path class="cls-1" d="M594.6,198.8v62.83H581.88v0a12.68,12.68,0,0,0,6,10.77,12.54,12.54,0,0,0,6.75,1.93v50.13a62.93,62.93,0,0,1-62.84-62.83v0a62.83,62.83,0,0,1,53.85-62.17A60.93,60.93,0,0,1,594.6,198.8Z" transform="translate(-368.88 1)"/><path class="cls-1" d="M594.6,205.79v55.84H581.88v0a12.68,12.68,0,0,0,6,10.77,12.54,12.54,0,0,0,6.75,1.93v43.14a57.65,57.65,0,0,1-6.66-.41,55.85,55.85,0,0,1-49.18-55.43v0a57.25,57.25,0,0,1,.39-6.64A55.87,55.87,0,0,1,594.6,205.79Z" transform="translate(-368.88 1)"/><path class="cls-1" d="M594.6,212.75v48.88H581.88v0a12.68,12.68,0,0,0,6,10.77,12.54,12.54,0,0,0,6.75,1.93v36.18A48.89,48.89,0,0,1,547,272.63a48.15,48.15,0,0,1-1.27-11v0A48.9,48.9,0,0,1,583.6,214,48.32,48.32,0,0,1,594.6,212.75Z" transform="translate(-368.88 1)"/><path class="cls-1" d="M594.6,222v39.61H581.88v0a12.68,12.68,0,0,0,6,10.77,12.54,12.54,0,0,0,6.75,1.93v26.91a39.16,39.16,0,0,1-7.26-.67A39.66,39.66,0,0,1,555,261.65v0a38.13,38.13,0,0,1,.68-7.24A39.64,39.64,0,0,1,594.6,222Z" transform="translate(-368.88 1)"/><path class="cls-1" d="M594.6,229.69v31.94H581.88v0a12.68,12.68,0,0,0,6,10.77,12.54,12.54,0,0,0,6.75,1.93v19.26a32,32,0,0,1-32-32v0a32,32,0,0,1,32-31.94Z" transform="translate(-368.88 1)"/><path class="cls-1" d="M594.6,236.22v25.41H581.88v0a12.68,12.68,0,0,0,6,10.77,12.54,12.54,0,0,0,6.75,1.93v12.71a25.43,25.43,0,0,1-25.43-25.41v0a25.46,25.46,0,0,1,25.43-25.41Z" transform="translate(-368.88 1)"/><path class="cls-1" d="M594.6,243.66v18H581.88v0a12.68,12.68,0,0,0,6,10.77,12.54,12.54,0,0,0,6.75,1.93v5.27a18,18,0,0,1-18-18v0a18,18,0,0,1,18-18Z" transform="translate(-368.88 1)"/><path class="cls-1" d="M594.6,248.93v12.7H581.88a12.7,12.7,0,0,1,12.72-12.7Z" transform="translate(-368.88 1)"/><path class="cls-1" d="M594.6,170v91.66H581.88v0a12.68,12.68,0,0,0,6,10.77,12.54,12.54,0,0,0,6.75,1.93v79a89.78,89.78,0,0,1-10.93-.66,91.7,91.7,0,0,1-80.75-91v0a89.74,89.74,0,0,1,.66-10.92A91.67,91.67,0,0,1,594.6,170Z" transform="translate(-368.88 1)"/><path class="cls-1" d="M594.6,161.13v100.5H581.88v0a12.68,12.68,0,0,0,6,10.77,12.54,12.54,0,0,0,6.75,1.93v87.82A100.55,100.55,0,0,1,495.12,276a98.78,98.78,0,0,1-1-14.38v0a100.52,100.52,0,0,1,86.14-99.46A98.78,98.78,0,0,1,594.6,161.13Z" transform="translate(-368.88 1)"/><path class="cls-2" d="M594.6,150V261.63h-111c0-.95,0-1.93,0-2.88s.07-1.92.12-2.86.1-1.91.18-2.85.15-1.81.23-2.71a2.58,2.58,0,0,0,0-.29c.07-.58.12-1.14.2-1.7s.17-1.32.25-2c.12-.88.25-1.73.4-2.59s.28-1.73.44-2.59.33-1.68.5-2.51a103,103,0,0,1,3.26-12.15c.27-.79.53-1.59.81-2.36s.56-1.55.86-2.33.59-1.53.9-2.31.58-1.41.89-2.12l.15-.37c.3-.67.6-1.35.91-2s.56-1.22.86-1.83c.39-.81.79-1.62,1.2-2.42s.83-1.6,1.26-2.39.87-1.59,1.31-2.36c.91-1.55,1.84-3.1,2.81-4.6a113.69,113.69,0,0,1,11.06-14.52q2-2.17,4.06-4.27c.63-.63,1.27-1.25,1.91-1.86s1.22-1.16,1.85-1.72c1.37-1.25,2.77-2.47,4.22-3.66,1.22-1,2.46-2,3.73-2.93q3.78-2.89,7.82-5.4a103.73,103.73,0,0,1,10.37-5.79c2.13-1.07,4.31-2,6.52-2.93s4.43-1.77,6.69-2.52l0,0c1.51-.51,3-1,4.54-1.42.78-.23,1.53-.44,2.31-.64s1.32-.37,2-.53l.74-.18c.64-.15,1.27-.3,1.91-.43s1.22-.28,1.83-.4c.91-.19,1.83-.36,2.74-.52,1.83-.33,3.7-.61,5.56-.86,3.69-.46,7.47-.76,11.28-.86h0C593.12,150,593.86,150,594.6,150Z" transform="translate(-368.88 1)"/><path class="cls-3" d="M493.68,485.17l-20.26-87.82A90.26,90.26,0,0,1,493.68,395c49.44,0,90.13,40.69,90.13,90.13s-40.69,90.12-90.13,90.12-90.12-40.68-90.12-90.12a90.33,90.33,0,0,1,64.53-86.42Z" transform="translate(-368.88 1)"/><circle class="cls-4" cx="124.8" cy="486.17" r="78.7"/><circle class="cls-5" cx="493.68" cy="485.17" r="68.64" transform="translate(-567.35 492.19) rotate(-45)"/><circle class="cls-6" cx="493.68" cy="485.17" r="61.01" transform="translate(-567.35 492.19) rotate(-45)"/><circle class="cls-7" cx="493.68" cy="485.17" r="53.4" transform="translate(-525.86 722.27) rotate(-64.45)"/><circle class="cls-8" cx="493.68" cy="485.17" r="43.28" transform="translate(-545.07 660.44) rotate(-59.08)"/><circle class="cls-9" cx="493.68" cy="485.17" r="34.91" transform="translate(-402.21 934.91) rotate(-84.92)"/><circle class="cls-10" cx="493.68" cy="485.17" r="27.78" transform="translate(-520.48 736.6) rotate(-65.71)"/><circle class="cls-11" cx="124.8" cy="486.17" r="19.64"/><circle class="cls-12" cx="493.68" cy="485.17" r="13.89" transform="translate(-534.76 276.21) rotate(-26.84)"/><circle class="cls-13" cx="124.8" cy="486.17" r="100.15"/><path class="cls-14" d="M594.6,459v.5c.23,0,.44,0,.68,0v.5" transform="translate(-368.88 1)"/><path class="cls-15" d="M595.28,464v62.88c-.22.55-.45,1.08-.68,1.6a109.8,109.8,0,1,1,0-86.65V457" transform="translate(-368.88 1)"/><path class="cls-14" d="M595.28,460v-.5c-.24,0-.45,0-.68,0V459" transform="translate(-368.88 1)"/><path class="cls-16" d="M594.6,455V416.58A122,122,0,1,0,471.35,605.13a125,125,0,0,0,13.82,1.78A122.14,122.14,0,0,0,594.6,553.79l.68-1V462" transform="translate(-368.88 1)"/><circle class="cls-17" cx="75.27" cy="321.14" r="49.53"/><path class="cls-17" d="M595.28,459.5V689.88a115.23,115.23,0,0,1-110.11-83,113.2,113.2,0,0,1-2.88-12.52c-.56-3.25-1-6.54-1.27-9.89s-.41-6.5-.41-9.8v-.36a111,111,0,0,1,.61-11.46c.33-3.37.82-6.68,1.45-10,.48-2.52,1-5,1.7-7.47s1.37-5,2.17-7.35c1.12-3.34,2.38-6.62,3.8-9.8,1.23-2.8,2.57-5.56,4-8.25s2.9-5.14,4.52-7.62h0a114.87,114.87,0,0,1,22.53-25.68c2.24-1.91,4.58-3.74,7-5.48s5-3.48,7.66-5.08c3-1.81,6-3.48,9.18-5q3.46-1.71,7-3.15c2.34-1,4.73-1.86,7.16-2.65h0c3.17-1.06,6.37-2,9.65-2.76a112.73,112.73,0,0,1,11.28-2.08c3.36-.46,6.76-.77,10.21-.9,1.33-.09,2.69-.12,4-.12C594.83,459.5,595,459.5,595.28,459.5Z" transform="translate(-368.88 1)"/><path class="cls-2" d="M457,841.89A177.5,177.5,0,0,0,595.08,703.81V841.89Z" transform="translate(-368.88 1)"/><rect class="cls-17" x="453.17" y="581.83" width="57.61" height="218.9" transform="translate(-688.25 953.09) rotate(-73.14)"/><rect class="cls-18" x="457.4" y="575.23" width="57.61" height="218.9" transform="translate(-632.4 307.41) rotate(-27.85)"/><path class="cls-19" d="M480.19,208.92q56.77-.4,113.55-.12" transform="translate(-368.88 1)"/><path class="cls-19" d="M480.19,0q56.67,1,113.35.38" transform="translate(-368.88 1)"/><path class="cls-19" d="M480.19,89.54q55.68.36,111.37.17" transform="translate(-368.88 1)"/><path class="cls-19" d="M480.19,74.61q55.62.44,111.24.22" transform="translate(-368.88 1)"/><path class="cls-19" d="M480.19,59.69q55.68.54,111.37.26" transform="translate(-368.88 1)"/><path class="cls-19" d="M480.19,44.77q56,.63,112,.29" transform="translate(-368.88 1)"/><path class="cls-19" d="M480.19,29.85q55.86.72,111.71.33" transform="translate(-368.88 1)"/><path class="cls-19" d="M480.19,14.92q56.27.83,112.54.36" transform="translate(-368.88 1)"/><path class="cls-19" d="M480.19,119.38q55.6.18,111.21.08" transform="translate(-368.88 1)"/><path class="cls-19" d="M480.19,104.46q55.45.27,110.9.13" transform="translate(-368.88 1)"/><path class="cls-19" d="M480.19,149.23h111.2" transform="translate(-368.88 1)"/><path class="cls-19" d="M480.19,134.31q55.55.08,111.09,0" transform="translate(-368.88 1)"/><path class="cls-19" d="M480.19,179.07q56.59-.19,113.18-.06" transform="translate(-368.88 1)"/><path class="cls-19" d="M480.19,164.15q55.86-.1,111.7,0" transform="translate(-368.88 1)"/><path class="cls-19" d="M480.19,194q57-.31,113.9-.09" transform="translate(-368.88 1)"/></svg>