<svg id="Layer_1" data-name="Layer 1" xmlns="http://www.w3.org/2000/svg" viewBox="0 0 511.48 137.78"><defs><style>.cls-1,.cls-10,.cls-11,.cls-12,.cls-13,.cls-14,.cls-15,.cls-16,.cls-18,.cls-19,.cls-3,.cls-4,.cls-5,.cls-6,.cls-7,.cls-8,.cls-9{fill:none;stroke-miterlimit:10;}.cls-1,.cls-18,.cls-3{stroke:#b22526;}.cls-1{stroke-width:0.25px;}.cls-2{fill:#b22425;}.cls-3{stroke-width:0.75px;}.cls-10,.cls-11,.cls-12,.cls-13,.cls-14,.cls-15,.cls-16,.cls-4,.cls-5,.cls-6,.cls-7,.cls-8,.cls-9{stroke:#414042;}.cls-4{stroke-dasharray:1 4;}.cls-5{stroke-dasharray:1.01 4.02;}.cls-6{stroke-dasharray:1.01 4.04;}.cls-7{stroke-dasharray:0.99 3.97;}.cls-8{stroke-dasharray:1 4;}.cls-9{stroke-dasharray:0.98 3.94;}.cls-10{stroke-dasharray:1.01 4.03;}.cls-11{stroke-dasharray:1 3.99;}.cls-12{stroke-dasharray:0.96 3.85;}.cls-13{stroke-dasharray:1 4.02;}.cls-15{stroke-dasharray:1 4.02;}.cls-16{stroke-dasharray:1 4;}.cls-17{fill:#414042;}.cls-18{stroke-width:4px;}.cls-19{stroke:#231f20;stroke-linecap:round;stroke-width:2px;stroke-dasharray:1 10;opacity:0.42;}</style></defs><title>skepta</title><path class="cls-1" d="M437.5,475.25h-50v-7.71h0a7.67,7.67,0,0,0-6.53,3.62,7.56,7.56,0,0,0-1.17,4.09H337.45a50.07,50.07,0,0,1,50-50h0a50.07,50.07,0,0,1,50,50Z" transform="translate(-35.64 -338.39)"/><path class="cls-1" d="M431.16,475.25H387.48v-7.71h0a7.67,7.67,0,0,0-6.53,3.62,7.56,7.56,0,0,0-1.17,4.09h-36a43.75,43.75,0,0,1,43.68-43.69h0a43.75,43.75,0,0,1,43.68,43.69Z" transform="translate(-35.64 -338.39)"/><path class="cls-1" d="M425.58,475.25h-38.1v-7.71h0a7.67,7.67,0,0,0-6.53,3.62,7.56,7.56,0,0,0-1.17,4.09h-30.4A38.11,38.11,0,0,1,382,437.55a37.42,37.42,0,0,1,5.45-.4h0a38.1,38.1,0,0,1,37.7,32.65A37.32,37.32,0,0,1,425.58,475.25Z" transform="translate(-35.64 -338.39)"/><path class="cls-1" d="M421.34,475.25H387.48v-7.71h0a7.67,7.67,0,0,0-6.53,3.62,7.56,7.56,0,0,0-1.17,4.09H353.61a34.49,34.49,0,0,1,.25-4,33.87,33.87,0,0,1,33.61-29.82h0a34.3,34.3,0,0,1,4,.24A33.88,33.88,0,0,1,421.34,475.25Z" transform="translate(-35.64 -338.39)"/><path class="cls-1" d="M417.12,475.25H387.48v-7.71h0a7.67,7.67,0,0,0-6.53,3.62,7.56,7.56,0,0,0-1.17,4.09H357.83a29.65,29.65,0,0,1,23-28.88,29.29,29.29,0,0,1,6.66-.77h0a29.7,29.7,0,0,1,29.64,29.65Z" transform="translate(-35.64 -338.39)"/><path class="cls-1" d="M411.5,475.25h-24v-7.71h0a7.67,7.67,0,0,0-6.53,3.62,7.56,7.56,0,0,0-1.17,4.09H363.45a23.63,23.63,0,0,1,.41-4.4,24,24,0,0,1,23.61-19.63h0a23.53,23.53,0,0,1,4.39.41A24,24,0,0,1,411.5,475.25Z" transform="translate(-35.64 -338.39)"/><path class="cls-1" d="M406.85,475.25H387.48v-7.71h0a7.67,7.67,0,0,0-6.53,3.62,7.56,7.56,0,0,0-1.17,4.09H368.09a19.39,19.39,0,0,1,19.38-19.38h0a19.39,19.39,0,0,1,19.37,19.38Z" transform="translate(-35.64 -338.39)"/><path class="cls-1" d="M402.89,475.25H387.48v-7.71h0a7.67,7.67,0,0,0-6.53,3.62,7.56,7.56,0,0,0-1.17,4.09h-7.71a15.42,15.42,0,0,1,15.41-15.42h0a15.44,15.44,0,0,1,15.41,15.42Z" transform="translate(-35.64 -338.39)"/><path class="cls-1" d="M398.38,475.25h-10.9v-7.71h0a7.67,7.67,0,0,0-6.53,3.62,7.56,7.56,0,0,0-1.17,4.09h-3.2a10.9,10.9,0,0,1,10.9-10.9h0a10.92,10.92,0,0,1,10.9,10.9Z" transform="translate(-35.64 -338.39)"/><path class="cls-1" d="M395.18,475.25h-7.7v-7.71a7.7,7.7,0,0,1,7.7,7.71Z" transform="translate(-35.64 -338.39)"/><path class="cls-1" d="M443.06,475.25H387.48v-7.71h0a7.67,7.67,0,0,0-6.53,3.62,7.56,7.56,0,0,0-1.17,4.09H331.89a55.62,55.62,0,0,1,55.58-55.59h0a54.94,54.94,0,0,1,6.62.4A55.59,55.59,0,0,1,443.06,475.25Z" transform="translate(-35.64 -338.39)"/><path class="cls-1" d="M448.42,475.25H387.48v-7.71h0a7.67,7.67,0,0,0-6.53,3.62,7.56,7.56,0,0,0-1.17,4.09H326.52a61,61,0,0,1,52.23-60.32,60,60,0,0,1,8.72-.63h0a61,61,0,0,1,60.31,52.23A60,60,0,0,1,448.42,475.25Z" transform="translate(-35.64 -338.39)"/><path class="cls-2" d="M455.2,475.25H387.48V407.94l1.75,0L391,408c.58,0,1.16.06,1.73.11l1.64.14.18,0c.35,0,.69.07,1,.12s.8.1,1.19.15,1,.15,1.57.24,1.05.17,1.57.27,1,.2,1.52.3a63,63,0,0,1,7.37,2l1.43.49,1.41.52,1.4.55q.64.25,1.29.54l.22.09,1.22.55,1.11.52,1.47.73,1.45.76,1.43.8c.94.55,1.88,1.11,2.79,1.7a68.58,68.58,0,0,1,8.8,6.71c.88.79,1.74,1.61,2.59,2.46.38.38.76.77,1.13,1.16s.7.74,1,1.12c.76.83,1.5,1.68,2.22,2.56s1.21,1.49,1.78,2.26q1.75,2.3,3.27,4.74a61.24,61.24,0,0,1,3.51,6.29c.65,1.29,1.24,2.61,1.78,3.95s1.07,2.69,1.53,4.06v0c.31.91.6,1.83.86,2.75.14.47.27.93.39,1.4s.22.8.32,1.2c0,.15.07.3.11.45.09.39.18.77.26,1.16s.17.74.24,1.11c.12.55.22,1.11.32,1.66.2,1.11.37,2.24.52,3.37.28,2.24.46,4.53.52,6.84v0C455.19,474.35,455.2,474.8,455.2,475.25Z" transform="translate(-35.64 -338.39)"/><path class="cls-3" d="M251.94,414.06l53.25-12.29a54.69,54.69,0,1,1-.85-3.22Z" transform="translate(-35.64 -338.39)"/><circle class="cls-4" cx="216.3" cy="75.67" r="47.72"/><circle class="cls-5" cx="251.94" cy="414.06" r="41.62" transform="translate(-259.25 169.32) rotate(-69.82)"/><circle class="cls-6" cx="216.3" cy="75.67" r="36.99"/><circle class="cls-7" cx="216.3" cy="75.67" r="32.38"/><circle class="cls-8" cx="216.3" cy="75.67" r="26.24"/><circle class="cls-9" cx="251.94" cy="414.06" r="21.17" transform="translate(-47.96 -330.63) rotate(-1.72)"/><circle class="cls-10" cx="216.3" cy="75.67" r="16.84"/><circle class="cls-11" cx="216.3" cy="75.68" r="11.91"/><circle class="cls-12" cx="251.94" cy="414.06" r="8.42" transform="translate(-216.96 -141.6) rotate(-32.05)"/><circle class="cls-13" cx="251.94" cy="414.06" r="60.73" transform="translate(-254.63 -38.96) rotate(-45)"/><path class="cls-14" d="M268,475.25h-.5c0,.14,0,.27,0,.41H267" transform="translate(-35.64 -338.39)"/><path class="cls-15" d="M263,475.66H226.65l-1-.41A66.51,66.51,0,0,1,186,423.59a65.77,65.77,0,0,1-.33-16.44,66.59,66.59,0,1,1,92.51,68.1H270" transform="translate(-35.64 -338.39)"/><path class="cls-14" d="M267,475.66h.5c0-.14,0-.27,0-.41h.5" transform="translate(-35.64 -338.39)"/><path class="cls-16" d="M272,475.25h21.54A74,74,0,1,0,179.2,400.52a76,76,0,0,0-1.08,8.38,74.05,74.05,0,0,0,32.21,66.35l.6.41H265" transform="translate(-35.64 -338.39)"/><circle class="cls-17" cx="316.37" cy="45.64" r="30.03"/><path class="cls-17" d="M267.5,475.66H127.81a69.87,69.87,0,0,1,50.31-66.76,68.54,68.54,0,0,1,7.59-1.75q3-.51,6-.77t5.94-.25h.22a69.22,69.22,0,0,1,6.95.37c2,.2,4.05.5,6,.88,1.53.29,3,.63,4.53,1s3,.83,4.46,1.32c2,.68,4,1.44,5.94,2.3q2.55,1.13,5,2.44t4.62,2.74h0A69.8,69.8,0,0,1,251,430.87c1.16,1.36,2.27,2.78,3.32,4.23s2.11,3,3.08,4.64c1.1,1.81,2.11,3.66,3,5.57q1,2.1,1.91,4.26c.59,1.42,1.13,2.87,1.61,4.34h0c.64,1.92,1.2,3.86,1.67,5.85a67,67,0,0,1,1.26,6.84c.28,2,.47,4.1.55,6.19.05.81.07,1.63.07,2.45C267.5,475.39,267.5,475.52,267.5,475.66Z" transform="translate(-35.64 -338.39)"/><path class="cls-2" d="M35.64,391.82a107.65,107.65,0,0,0,83.72,83.73H35.64Z" transform="translate(-35.64 -338.39)"/><rect class="cls-17" x="109.49" y="340.6" width="34.93" height="132.73" transform="translate(87.83 -357.72) rotate(16.86)"/><rect class="cls-18" x="113.49" y="343.17" width="34.93" height="132.73" transform="translate(396.25 -235.95) rotate(62.15)"/><path class="cls-19" d="M419.44,405.88q.26,34.42.07,68.85" transform="translate(-35.64 -338.39)"/><path class="cls-19" d="M546.12,405.88q-.58,34.37-.23,68.73" transform="translate(-35.64 -338.39)"/><path class="cls-19" d="M491.83,405.88q-.22,33.76-.1,67.53" transform="translate(-35.64 -338.39)"/><path class="cls-19" d="M500.88,405.88q-.27,33.74-.13,67.45" transform="translate(-35.64 -338.39)"/><path class="cls-19" d="M509.93,405.88q-.33,33.76-.16,67.53" transform="translate(-35.64 -338.39)"/><path class="cls-19" d="M519,405.88q-.37,34-.17,67.92" transform="translate(-35.64 -338.39)"/><path class="cls-19" d="M528,405.88q-.43,33.87-.2,67.73" transform="translate(-35.64 -338.39)"/><path class="cls-19" d="M537.07,405.88q-.5,34.13-.22,68.24" transform="translate(-35.64 -338.39)"/><path class="cls-19" d="M473.73,405.88q-.11,33.72-.05,67.43" transform="translate(-35.64 -338.39)"/><path class="cls-19" d="M482.78,405.88q-.16,33.63-.08,67.24" transform="translate(-35.64 -338.39)"/><path class="cls-19" d="M455.64,405.88V473.3" transform="translate(-35.64 -338.39)"/><path class="cls-19" d="M464.68,405.88q0,33.69,0,67.36" transform="translate(-35.64 -338.39)"/><path class="cls-19" d="M437.54,405.88q.12,34.32,0,68.63" transform="translate(-35.64 -338.39)"/><path class="cls-19" d="M446.59,405.88q.06,33.87,0,67.73" transform="translate(-35.64 -338.39)"/><path class="cls-19" d="M428.49,405.88q.19,34.53.06,69.06" transform="translate(-35.64 -338.39)"/></svg>