<svg width="185" height="55" viewBox="0 0 185 55" fill="none" xmlns="http://www.w3.org/2000/svg">
<rect width="59" height="55" fill="#FFB0DB"/>
<rect x="59" width="126" height="55" fill="#80CFD2"/>
<path d="M84.67 38.07C84.25 38.43 83.73 38.71 83.11 38.91C82.49 39.09 81.85 39.18 81.19 39.18C79.59 39.18 78.35 38.75 77.47 37.89C76.59 37.03 76.15 35.8 76.15 34.2V25.47H73.45V23.1H76.15V19.62H79.03V23.1H83.59V25.47H79.03V34.08C79.03 34.94 79.24 35.6 79.66 36.06C80.1 36.52 80.72 36.75 81.52 36.75C82.4 36.75 83.15 36.5 83.77 36L84.67 38.07ZM92.7419 20.61H85.5419V18H102.912V20.61H95.7119V39H92.7419V20.61ZM110.7 22.95C112.9 22.95 114.58 23.49 115.74 24.57C116.92 25.65 117.51 27.26 117.51 29.4V39H114.78V36.9C114.3 37.64 113.61 38.21 112.71 38.61C111.83 38.99 110.78 39.18 109.56 39.18C107.78 39.18 106.35 38.75 105.27 37.89C104.21 37.03 103.68 35.9 103.68 34.5C103.68 33.1 104.19 31.98 105.21 31.14C106.23 30.28 107.85 29.85 110.07 29.85H114.63V29.28C114.63 28.04 114.27 27.09 113.55 26.43C112.83 25.77 111.77 25.44 110.37 25.44C109.43 25.44 108.51 25.6 107.61 25.92C106.71 26.22 105.95 26.63 105.33 27.15L104.13 24.99C104.95 24.33 105.93 23.83 107.07 23.49C108.21 23.13 109.42 22.95 110.7 22.95ZM110.04 36.96C111.14 36.96 112.09 36.72 112.89 36.24C113.69 35.74 114.27 35.04 114.63 34.14V31.92H110.19C107.75 31.92 106.53 32.74 106.53 34.38C106.53 35.18 106.84 35.81 107.46 36.27C108.08 36.73 108.94 36.96 110.04 36.96ZM122.839 16.74H125.719V39H122.839V16.74ZM145.588 31.14C145.588 31.36 145.568 31.65 145.528 32.01H132.628C132.808 33.41 133.418 34.54 134.458 35.4C135.518 36.24 136.828 36.66 138.388 36.66C140.288 36.66 141.818 36.02 142.978 34.74L144.568 36.6C143.848 37.44 142.948 38.08 141.868 38.52C140.808 38.96 139.618 39.18 138.298 39.18C136.618 39.18 135.128 38.84 133.828 38.16C132.528 37.46 131.518 36.49 130.798 35.25C130.098 34.01 129.748 32.61 129.748 31.05C129.748 29.51 130.088 28.12 130.768 26.88C131.468 25.64 132.418 24.68 133.618 24C134.838 23.3 136.208 22.95 137.728 22.95C139.248 22.95 140.598 23.3 141.778 24C142.978 24.68 143.908 25.64 144.568 26.88C145.248 28.12 145.588 29.54 145.588 31.14ZM137.728 25.38C136.348 25.38 135.188 25.8 134.248 26.64C133.328 27.48 132.788 28.58 132.628 29.94H142.828C142.668 28.6 142.118 27.51 141.178 26.67C140.258 25.81 139.108 25.38 137.728 25.38ZM154.147 39.18C152.847 39.18 151.597 39.01 150.397 38.67C149.197 38.31 148.257 37.86 147.577 37.32L148.777 35.04C149.477 35.54 150.327 35.94 151.327 36.24C152.327 36.54 153.337 36.69 154.357 36.69C156.877 36.69 158.137 35.97 158.137 34.53C158.137 34.05 157.967 33.67 157.627 33.39C157.287 33.11 156.857 32.91 156.337 32.79C155.837 32.65 155.117 32.5 154.177 32.34C152.897 32.14 151.847 31.91 151.027 31.65C150.227 31.39 149.537 30.95 148.957 30.33C148.377 29.71 148.087 28.84 148.087 27.72C148.087 26.28 148.687 25.13 149.887 24.27C151.087 23.39 152.697 22.95 154.717 22.95C155.777 22.95 156.837 23.08 157.897 23.34C158.957 23.6 159.827 23.95 160.507 24.39L159.277 26.67C157.977 25.83 156.447 25.41 154.687 25.41C153.467 25.41 152.537 25.61 151.897 26.01C151.257 26.41 150.937 26.94 150.937 27.6C150.937 28.12 151.117 28.53 151.477 28.83C151.837 29.13 152.277 29.35 152.797 29.49C153.337 29.63 154.087 29.79 155.047 29.97C156.327 30.19 157.357 30.43 158.137 30.69C158.937 30.93 159.617 31.35 160.177 31.95C160.737 32.55 161.017 33.39 161.017 34.47C161.017 35.91 160.397 37.06 159.157 37.92C157.937 38.76 156.267 39.18 154.147 39.18Z" fill="#176B6F"/>
<path d="M46.4142 29.4142C47.1953 28.6332 47.1953 27.3668 46.4142 26.5858L33.6863 13.8579C32.9052 13.0768 31.6389 13.0768 30.8579 13.8579C30.0768 14.6389 30.0768 15.9052 30.8579 16.6863L42.1716 28L30.8579 39.3137C30.0768 40.0948 30.0768 41.3611 30.8579 42.1421C31.6389 42.9232 32.9052 42.9232 33.6863 42.1421L46.4142 29.4142ZM14 30H45V26H14V30Z" fill="#E93295"/>
</svg>
